<svg width="163" height="162" viewBox="0 0 163 162" fill="none" xmlns="http://www.w3.org/2000/svg">
<path d="M156.701 84.9451L156.908 82.2676L158.894 82.4211L158.286 90.2883L156.3 90.1347L156.506 87.4669L141.862 86.335L142.057 83.8132L156.701 84.9451Z" fill="#EDEDED"/>
<path d="M156.95 97.5759L156.253 100.401L139.32 99.4027L139.933 96.9186L142.944 97.1887L143.674 94.2305L140.878 93.0881L141.493 90.5945L156.95 97.5759ZM144.863 97.3603L153.212 98.2129L153.238 98.1086L145.453 94.971L144.863 97.3603Z" fill="#EDEDED"/>
<path d="M153.543 108.933L152.514 111.243C152.384 111.535 152.228 111.846 152.044 112.178C151.864 112.518 151.647 112.839 151.392 113.139C151.141 113.447 150.843 113.717 150.498 113.948C150.15 114.185 149.745 114.351 149.283 114.444C148.826 114.54 148.304 114.546 147.714 114.462C147.122 114.384 146.451 114.178 145.701 113.844L145.166 113.606C144.351 113.243 143.684 112.861 143.165 112.459C142.649 112.065 142.243 111.664 141.948 111.254C141.659 110.847 141.464 110.437 141.364 110.021C141.261 109.612 141.221 109.213 141.244 108.824C141.271 108.444 141.339 108.076 141.448 107.718C141.561 107.369 141.683 107.046 141.816 106.749L141.915 106.525L137.276 104.46L138.304 102.15L153.543 108.933ZM143.558 107.396C143.373 107.812 143.276 108.19 143.268 108.528C143.266 108.869 143.356 109.18 143.537 109.46C143.722 109.749 144.001 110.02 144.374 110.271C144.75 110.531 145.223 110.788 145.794 111.042L147.168 111.654C147.62 111.855 148.024 111.996 148.381 112.076C148.743 112.159 149.069 112.162 149.36 112.084C149.649 112.013 149.907 111.857 150.135 111.617C150.369 111.379 150.583 111.043 150.776 110.609L150.828 110.493L143.61 107.28L143.558 107.396Z" fill="#EDEDED"/>
<path d="M141.228 126.599L142.901 124.499L144.459 125.74L139.543 131.912L137.985 130.671L139.652 128.578L128.164 119.426L129.74 117.448L141.228 126.599Z" fill="#EDEDED"/>
<path d="M121.582 126.03C121.782 125.854 122.014 125.679 122.279 125.506C122.539 125.328 122.829 125.19 123.148 125.089C123.468 124.989 123.817 124.937 124.196 124.933C124.574 124.938 124.981 125.021 125.419 125.181C125.851 125.347 126.315 125.611 126.809 125.973C127.307 126.341 127.833 126.837 128.384 127.461L132.296 131.889C132.852 132.518 133.278 133.098 133.572 133.628C133.866 134.168 134.064 134.662 134.165 135.111C134.271 135.565 134.299 135.975 134.248 136.341C134.193 136.711 134.092 137.044 133.945 137.339C133.797 137.643 133.621 137.912 133.417 138.143C133.214 138.375 133.015 138.578 132.819 138.75C132.634 138.914 132.416 139.08 132.166 139.249C131.915 139.427 131.636 139.569 131.33 139.675C131.023 139.79 130.683 139.852 130.309 139.861C129.939 139.875 129.535 139.801 129.098 139.64C128.664 139.485 128.199 139.223 127.7 138.855C127.201 138.497 126.669 137.998 126.105 137.359L122.193 132.931C121.645 132.312 121.225 131.732 120.93 131.193C120.641 130.658 120.441 130.162 120.331 129.703C120.225 129.249 120.198 128.83 120.249 128.446C120.3 128.07 120.393 127.728 120.527 127.418C120.661 127.117 120.825 126.851 121.02 126.618C121.214 126.386 121.401 126.19 121.582 126.03ZM122.843 127.457C122.657 127.621 122.524 127.795 122.444 127.979C122.358 128.168 122.341 128.379 122.391 128.613C122.436 128.851 122.549 129.116 122.729 129.408C122.909 129.71 123.171 130.056 123.516 130.446L128.54 136.133C128.893 136.533 129.213 136.846 129.499 137.071C129.78 137.3 130.038 137.455 130.273 137.534C130.507 137.622 130.725 137.638 130.927 137.581C131.124 137.529 131.315 137.421 131.5 137.257C131.691 137.089 131.826 136.908 131.908 136.715C131.989 136.521 132.002 136.301 131.949 136.053C131.899 135.81 131.78 135.533 131.592 135.222C131.399 134.914 131.125 134.561 130.772 134.161L125.748 128.474C125.403 128.084 125.094 127.779 124.822 127.559C124.549 127.349 124.297 127.206 124.067 127.132C123.836 127.058 123.622 127.051 123.424 127.113C123.227 127.174 123.033 127.289 122.843 127.457Z" fill="#EDEDED"/>
<path d="M118.313 149.142L116.09 150.103L111.064 141.295L110.014 139.185L109.79 139.282L110.624 141.804L112.853 151.5L110.998 152.301L105.541 143.999L104.312 141.647L104.079 141.748L104.905 143.955L107.958 153.614L105.726 154.578L101.257 138.339L103.614 137.321L108.057 144.136L109.833 147.166L110.013 147.089L109.016 143.722L107.165 135.788L109.496 134.782L118.313 149.142Z" fill="#EDEDED"/>
<path d="M97.1177 156.62L94.257 157.154L88.1611 141.324L90.6762 140.855L91.676 143.708L94.6711 143.148L94.5545 140.13L97.0792 139.659L97.1177 156.62ZM92.3137 145.526L94.9915 153.48L95.0971 153.46L94.7328 145.074L92.3137 145.526Z" fill="#EDEDED"/>
<path d="M84.062 156.219L86.747 156.167L86.7855 158.159L78.8963 158.311L78.8579 156.319L81.5331 156.268L81.2497 141.583L83.7785 141.534L84.062 156.219Z" fill="#EDEDED"/>
<path d="M71.8831 140.73C72.1406 140.769 72.4172 140.834 72.7129 140.925C73.0032 141.008 73.2894 141.14 73.5715 141.321C73.8471 141.501 74.1048 141.734 74.3446 142.021C74.577 142.313 74.7687 142.678 74.9198 143.115C75.0644 143.552 75.1562 144.076 75.1954 144.688C75.2271 145.305 75.1806 146.026 75.0559 146.85L74.1719 152.691C74.0463 153.522 73.8747 154.22 73.6573 154.786C73.439 155.359 73.1934 155.829 72.9206 156.196C72.6468 156.569 72.3535 156.854 72.0406 157.05C71.7278 157.247 71.4141 157.384 71.0994 157.461C70.7839 157.545 70.4783 157.584 70.1828 157.579C69.8808 157.573 69.6043 157.551 69.3533 157.513C68.6967 157.414 68.1637 157.237 67.7542 156.985C67.3373 156.737 67.0213 156.432 66.806 156.071C66.5834 155.714 66.4495 155.315 66.4044 154.874C66.3528 154.432 66.3631 153.972 66.4351 153.496C66.4887 153.142 66.5577 152.817 66.6421 152.52C66.7191 152.229 66.8203 151.908 66.9456 151.558L68.9733 151.865L68.8462 152.705C68.7089 153.613 68.7059 154.307 68.8372 154.788C68.9686 155.269 69.2274 155.538 69.6136 155.597C69.8454 155.632 70.055 155.617 70.2424 155.554C70.4298 155.49 70.5981 155.357 70.747 155.156C70.8951 154.961 71.028 154.691 71.146 154.347C71.2575 154.002 71.3532 153.565 71.4331 153.037L72.5728 145.506C72.6507 144.991 72.6929 144.56 72.6995 144.212C72.6996 143.863 72.6606 143.577 72.5823 143.354C72.504 143.132 72.3848 142.962 72.2247 142.846C72.0571 142.735 71.8478 142.66 71.5967 142.622C71.4358 142.598 71.276 142.61 71.1172 142.658C70.9574 142.713 70.8112 142.81 70.6784 142.948C70.5381 143.091 70.4178 143.277 70.3174 143.505C70.2096 143.739 70.1308 144.02 70.0812 144.349L69.8371 145.961L67.5487 145.615L67.7796 144.089C67.9803 142.763 68.4309 141.831 69.1314 141.291C69.832 140.752 70.7492 140.565 71.8831 140.73Z" fill="#EDEDED"/>
<path d="M59.4116 155.274L57.0209 154.448L59.3011 147.848L56.4674 146.869L54.1873 153.469L51.7966 152.643L57.2435 136.878L59.6341 137.704L57.118 144.986L59.9517 145.965L62.4678 138.683L64.8584 139.509L59.4116 155.274Z" fill="#EDEDED"/>
<path d="M39.6828 143.934L41.8998 145.45L40.7755 147.095L34.2615 142.642L35.3858 140.997L37.5948 142.507L45.8836 130.382L47.9717 131.809L39.6828 143.934Z" fill="#EDEDED"/>
<path d="M29.6973 138.935L27.8894 137.166L32.7726 132.175L30.6297 130.079L25.7465 135.07L23.9386 133.301L35.6037 121.378L37.4115 123.147L32.0229 128.655L34.1659 130.751L39.5545 125.244L41.3623 127.013L29.6973 138.935Z" fill="#EDEDED"/>
<path d="M19.7253 128.263L16.1255 123.238L17.7451 122.078L19.8719 125.047L23.9288 122.141L22.2853 119.846L23.9049 118.686L25.5483 120.981L30.1927 117.654L28.009 114.605L29.6285 113.445L33.2851 118.55L19.7253 128.263Z" fill="#EDEDED"/>
<path d="M10.2679 112.484L9.2739 110.158L24.6116 103.603L25.6056 105.929L10.2679 112.484Z" fill="#EDEDED"/>
<path d="M6.87425 103.905L6.37553 101.916L16.2193 95.2797L16.2051 95.2229C15.9572 95.3051 15.6826 95.4009 15.381 95.51C15.0795 95.6192 14.7362 95.7355 14.351 95.8589C13.9595 95.9839 13.5166 96.1184 13.0225 96.2624C12.5284 96.4064 11.9687 96.5568 11.3435 96.7136L5.44219 98.1931L4.89122 95.9955L21.0702 91.9392L21.5736 93.9474L12.0093 100.493L12.0283 100.569C12.3077 100.479 12.6108 100.376 12.9376 100.261C13.258 100.147 13.6393 100.021 14.0813 99.8832C14.5233 99.7455 15.0419 99.592 15.6371 99.4226C16.226 99.2549 16.9309 99.0681 17.7518 98.8622L22.507 97.67L23.0532 99.8487L6.87425 103.905Z" fill="#EDEDED"/>
<path d="M5.67446 86.8134L5.84014 89.4938L3.85175 89.6167L3.36496 81.7412L5.35335 81.6182L5.51843 84.2889L20.1779 83.3828L20.334 85.9073L5.67446 86.8134Z" fill="#EDEDED"/>
<path d="M3.49181 75.6095L3.80841 72.8837C3.84446 72.5733 3.89683 72.2353 3.96551 71.8697C4.03495 71.4976 4.14281 71.1332 4.28909 70.7766C4.42966 70.4128 4.62009 70.0712 4.86037 69.7517C5.10141 69.4258 5.41193 69.1505 5.79194 68.926C6.17271 68.6949 6.63762 68.5293 7.18669 68.4293C7.72929 68.3284 8.37567 68.3216 9.12584 68.4087L9.54295 68.4572C10.804 68.6036 11.8112 68.9041 12.5646 69.3587C13.3115 69.8125 13.8186 70.4121 14.086 71.1575L21.0201 69.2691L20.7113 71.9271L14.257 73.4091L14.1477 74.35L20.3463 75.07L20.0601 77.5339L3.49181 75.6095ZM12.3777 73.761C12.4288 73.3213 12.4235 72.9438 12.3618 72.6286C12.3001 72.3134 12.1669 72.0488 11.9624 71.835C11.7513 71.6204 11.4632 71.4493 11.0978 71.3217C10.7261 71.1933 10.2621 71.0968 9.70593 71.0322L8.39638 70.8801C7.96956 70.8305 7.59644 70.8265 7.27701 70.8681C6.95758 70.9096 6.68674 71.0125 6.46448 71.1768C6.24298 71.3346 6.06607 71.5598 5.93376 71.8525C5.80146 72.1452 5.70864 72.5211 5.65531 72.9802L5.61137 73.3586L12.3338 74.1393L12.3777 73.761Z" fill="#EDEDED"/>
<path d="M23.0277 62.4026C22.9462 62.6568 22.8361 62.9258 22.6974 63.2095C22.5649 63.4952 22.3868 63.7628 22.1633 64.0125C21.9397 64.2622 21.6664 64.4857 21.3434 64.683C21.0162 64.8722 20.6235 65.0096 20.1654 65.0952C19.7092 65.1747 19.1761 65.1851 18.566 65.1263C17.9497 65.0656 17.2447 64.9081 16.4511 64.6538L10.8246 62.8513C10.0248 62.595 9.36265 62.3145 8.83818 62.0098C8.30949 61.6968 7.88672 61.3734 7.56985 61.0394C7.24679 60.7035 7.01326 60.3655 6.86927 60.0254C6.72727 59.6791 6.64405 59.3414 6.6196 59.0122C6.59095 58.6749 6.6047 58.3546 6.66086 58.0513C6.71701 57.7479 6.78482 57.4723 6.86427 57.2243C6.93975 56.9887 7.04178 56.7342 7.17035 56.461C7.2947 56.1795 7.46147 55.915 7.67064 55.6676C7.8756 55.4119 8.13648 55.1844 8.45327 54.9851C8.76387 54.7838 9.14824 54.6404 9.60637 54.5547C10.0583 54.4671 10.5924 54.4536 11.2088 54.5143C11.8209 54.5669 12.533 54.7232 13.3452 54.9835L18.9717 56.786C19.7591 57.0383 20.4172 57.3209 20.9459 57.6338C21.4684 57.9448 21.8942 58.2692 22.2235 58.6072C22.5466 58.9431 22.7843 59.2893 22.9367 59.6458C23.0849 59.9941 23.1805 60.3357 23.2236 60.6708C23.2624 60.9978 23.2578 61.3108 23.2099 61.6099C23.1619 61.909 23.1012 62.1732 23.0277 62.4026ZM21.2142 61.8216C21.2897 61.586 21.3149 61.3685 21.2899 61.1691C21.2669 60.9635 21.1741 60.7731 21.0115 60.5979C20.8508 60.4166 20.6182 60.2463 20.3137 60.0872C20.0049 59.92 19.6026 59.7569 19.1066 59.598L11.8805 57.2829C11.3721 57.12 10.9374 57.015 10.5766 56.9677C10.2177 56.9143 9.91709 56.9137 9.67475 56.9659C9.4282 57.01 9.23272 57.108 9.08832 57.26C8.9459 57.4058 8.83695 57.5965 8.76147 57.8321C8.684 58.0739 8.65987 58.2986 8.68907 58.5062C8.71826 58.7138 8.81939 58.9103 8.99245 59.0956C9.15931 59.279 9.40331 59.4563 9.72445 59.6275C10.0476 59.7926 10.4633 59.9565 10.9717 60.1194L18.1978 62.4345C18.6938 62.5934 19.1151 62.6976 19.4616 62.747C19.8038 62.7883 20.093 62.7819 20.3292 62.7276C20.5653 62.6734 20.7525 62.5693 20.8907 62.4153C21.0289 62.2613 21.1367 62.0634 21.2142 61.8216Z" fill="#EDEDED"/>
<path d="M11.0644 46.7311L12.3332 44.4309C12.525 44.0831 12.7346 43.7303 12.9618 43.3723C13.1864 43.0055 13.4475 42.6737 13.7451 42.3769C14.0458 42.0743 14.391 41.826 14.7805 41.632C15.1676 41.4291 15.6209 41.3149 16.1407 41.2893C16.6547 41.2606 17.243 41.3397 17.9056 41.5268C18.5657 41.7051 19.3176 42.0269 20.1613 42.4923L24.4025 44.8319C25.2462 45.2973 25.9223 45.7632 26.4309 46.2296C26.9426 46.6903 27.3233 47.1457 27.5732 47.5959C27.8231 48.046 27.9683 48.4904 28.0088 48.9291C28.0468 49.359 28.018 49.7818 27.9225 50.1976C27.8301 50.6076 27.6916 51.007 27.5068 51.3959C27.3195 51.7758 27.13 52.1397 26.9382 52.4874L25.6693 54.7876L11.0644 46.7311ZM25.6546 51.1548C25.8747 50.7558 26.0042 50.3997 26.0431 50.0865C26.0852 49.7677 26.0188 49.4634 25.844 49.1737C25.6667 48.8751 25.3715 48.5747 24.9583 48.2724C24.5394 47.967 23.9879 47.6256 23.3038 47.2482L18.7718 44.7483C18.0877 44.3709 17.5077 44.0881 17.0316 43.8998C16.5498 43.7084 16.1382 43.6189 15.7967 43.6313C15.4527 43.6349 15.1571 43.7395 14.9099 43.9451C14.6657 44.145 14.4336 44.4445 14.2135 44.8435L13.9022 45.4079L25.3433 51.7192L25.6546 51.1548Z" fill="#EDEDED"/>
<path d="M18.9068 33.8693L20.5452 31.9169L29.9111 39.7761C30.3101 40.1109 30.6585 40.3693 30.9563 40.5512C31.2541 40.7331 31.5183 40.8486 31.7491 40.8977C31.979 40.9377 32.1854 40.9197 32.3682 40.8436C32.5502 40.7584 32.7207 40.621 32.8798 40.4315C33.0388 40.242 33.1445 40.0502 33.1968 39.8561C33.2484 39.6529 33.2345 39.4416 33.1552 39.2221C33.0751 38.9934 32.9218 38.7457 32.6951 38.479C32.4726 38.2073 32.1619 37.9041 31.7629 37.5693L22.397 29.71L24.0166 27.78L32.8663 35.2061C33.4897 35.7293 33.9815 36.2269 34.3417 36.6991C34.7018 37.1713 34.9625 37.6152 35.1236 38.0309C35.2847 38.4466 35.3626 38.8349 35.3572 39.1958C35.356 39.5517 35.3065 39.8842 35.2087 40.1931C35.1102 40.4928 34.9792 40.7654 34.8158 41.0107C34.6525 41.2561 34.4933 41.471 34.3385 41.6556C34.1837 41.8401 33.9996 42.0341 33.7864 42.2376C33.5773 42.4361 33.3337 42.6099 33.0556 42.759C32.7725 42.9039 32.4558 43.0079 32.1055 43.0709C31.7552 43.1338 31.3614 43.1221 30.924 43.0356C30.4867 42.949 30.0068 42.7715 29.4842 42.503C28.9608 42.2253 28.3849 41.8228 27.7565 41.2955L18.9068 33.8693Z" fill="#EDEDED"/>
<path d="M42.2894 33.7192C42.0887 33.8851 41.8559 34.048 41.5911 34.2079C41.3354 34.3686 41.0461 34.4938 40.7231 34.5834C40.4052 34.6689 40.0595 34.7055 39.6861 34.6932C39.3136 34.6717 38.9139 34.5714 38.4869 34.3922C38.065 34.2088 37.6131 33.9279 37.1311 33.5492C36.6499 33.1614 36.1438 32.6464 35.6128 32.0041L31.8481 27.4507C31.3129 26.8035 30.9067 26.2101 30.6296 25.6705C30.3483 25.1259 30.1618 24.6296 30.0702 24.1817C29.9744 23.7287 29.9576 23.3201 30.0199 22.9561C30.0821 22.5921 30.1893 22.267 30.3413 21.9808C30.4891 21.6896 30.6635 21.4356 30.8644 21.2188C31.0703 20.9979 31.2711 20.8065 31.4667 20.6448C31.9785 20.2216 32.4652 19.9417 32.9267 19.8051C33.389 19.6594 33.8268 19.6269 34.2399 19.7077C34.6539 19.7793 35.0405 19.9454 35.3996 20.2061C35.7637 20.4626 36.0993 20.7764 36.4063 21.1477C36.6344 21.4237 36.831 21.692 36.9958 21.9528C37.1616 22.2043 37.333 22.4934 37.5101 22.82L35.9296 24.1268L35.3882 23.472C34.8033 22.7645 34.2879 22.2995 33.8419 22.0769C33.396 21.8542 33.0225 21.8674 32.7214 22.1163C32.5408 22.2656 32.4118 22.4314 32.3344 22.6137C32.257 22.7959 32.2437 23.0097 32.2944 23.255C32.341 23.4952 32.4533 23.7741 32.6313 24.0915C32.8143 24.4048 33.0759 24.7672 33.4161 25.1786L38.2698 31.0491C38.6017 31.4505 38.8951 31.7697 39.1501 32.0066C39.4101 32.2393 39.6492 32.4007 39.8672 32.4907C40.0853 32.5808 40.2911 32.6049 40.4846 32.5631C40.679 32.5122 40.8741 32.4058 41.0698 32.244C41.1952 32.1403 41.2928 32.0132 41.3626 31.8626C41.4282 31.7069 41.4539 31.5337 41.4396 31.3427C41.4262 31.1426 41.3678 30.929 41.2645 30.7018C41.1621 30.4655 41.0051 30.2194 40.7935 29.9636L39.7543 28.7067L41.538 27.2319L42.5212 28.421C43.3758 29.4546 43.7706 30.4123 43.7055 31.2939C43.6404 32.1756 43.1684 32.984 42.2894 33.7192Z" fill="#EDEDED"/>
<path d="M39.3243 15.0708L41.4828 13.7524L50.1768 27.9871L48.0183 29.3054L39.3243 15.0708Z" fill="#EDEDED"/>
<path d="M47.0419 10.594L48.9366 9.80928L56.9432 18.5748L56.9973 18.5523C56.8796 18.3192 56.7447 18.0615 56.5925 17.7792C56.4404 17.497 56.275 17.1744 56.0965 16.8114C55.9155 16.4424 55.7176 16.0241 55.5027 15.5564C55.2879 15.0887 55.0571 14.5571 54.8105 13.9616L52.4824 8.34068L54.5756 7.47372L60.9582 22.8839L59.0455 23.6761L51.1691 15.1739L51.0969 15.2037C51.2271 15.4669 51.3732 15.7517 51.5353 16.058C51.6949 16.3584 51.8752 16.7171 52.0761 17.1342C52.2771 17.5513 52.5049 18.0418 52.7596 18.6057C53.0119 19.1636 53.2999 19.8336 53.6238 20.6155L55.4997 25.1447L53.4246 26.0042L47.0419 10.594Z" fill="#EDEDED"/>
<path d="M68.8572 20.9619C68.6653 20.9984 68.4372 21.0188 68.1729 21.0228C67.9098 21.0332 67.6279 20.9975 67.3273 20.9156C67.0331 20.8326 66.7317 20.6945 66.4232 20.5015C66.1134 20.3021 65.8146 20.0211 65.5267 19.6585C65.244 19.2882 64.9825 18.8211 64.7424 18.2572C64.5011 17.6868 64.3023 16.9923 64.1462 16.1738L63.0393 10.3702C62.8819 9.54522 62.8149 8.82895 62.8382 8.22138C62.8603 7.60741 62.9454 7.08083 63.0936 6.64164C63.2406 6.19606 63.4354 5.82751 63.678 5.536C63.9271 5.24327 64.1967 5.00627 64.4869 4.82499C64.7758 4.63732 65.0702 4.49502 65.3698 4.3981C65.6695 4.30118 65.9504 4.22771 66.2126 4.1777C66.8777 4.05085 67.4549 4.03684 67.9444 4.1357C68.439 4.22694 68.8574 4.4056 69.1998 4.67168C69.5474 4.93015 69.8222 5.25884 70.0242 5.65774C70.2326 6.05543 70.3819 6.49089 70.4722 6.96413C70.5393 7.31586 70.5791 7.64628 70.5917 7.95539C70.6094 8.25688 70.6172 8.5934 70.6152 8.96495L68.6295 9.34369L68.4813 8.56668C68.1386 6.76965 67.4843 5.96323 66.5187 6.14742C66.2565 6.19743 66.038 6.2855 65.8632 6.41162C65.6884 6.53775 65.5578 6.72173 65.4714 6.96356C65.3838 7.19899 65.3415 7.49867 65.3446 7.8626C65.3542 8.22531 65.4089 8.66887 65.509 9.19327L66.9251 16.618C67.0227 17.1296 67.1326 17.5494 67.2548 17.8774C67.3834 18.2041 67.528 18.4582 67.6885 18.6397C67.8555 18.8199 68.0402 18.9371 68.2427 18.9913C68.4505 19.0378 68.6854 19.0361 68.9476 18.9861C69.2226 18.9336 69.4458 18.8182 69.6172 18.6397C69.7874 18.4548 69.9127 18.2254 69.993 17.9516C70.0733 17.6778 70.11 17.3659 70.1029 17.016C70.1022 16.6649 70.064 16.2911 69.9884 15.8946L69.5804 13.7554L68.3045 13.9987L67.9935 12.368L71.6867 11.6636L73.2693 19.9612L71.6194 20.2759L71.0544 18.7731C70.8569 19.4405 70.5791 19.9474 70.2211 20.2941C69.8682 20.6331 69.4136 20.8557 68.8572 20.9619Z" fill="#EDEDED"/>
</svg>
