<svg width="152" height="39" fill="none" xmlns="http://www.w3.org/2000/svg"><path d="M20.565 38.46c-.675-.494-.66-.623.67-5.878.75-2.955 1.44-6.311 1.535-7.459l.173-2.087-1.783 3.46c-3.177 6.164-5.516 9.157-8.544 10.931-1.897 1.112-5.412 1.486-7.767.827C.05 36.91-1.664 30.487 1.9 27.201c2.147-1.979 8.288-1.186 7.6.981-.227.714-.412.772-1.812.562-1.365-.205-1.675-.12-2.476.682-.71.709-.916 1.277-.916 2.511 0 1.342.174 1.742 1.1 2.522 1.9 1.598 4.819 1.074 7.17-1.288 1.624-1.632 4.42-6.77 8-14.702 3.718-8.24 5.957-12.69 7.901-15.704C30.23.033 30.51-.198 31.694.1c1.34.337 1.41 1.544.24 4.158-2.206 4.928-3.792 10.72-4.211 15.379l-.242 2.684 3.5-5.01c4.44-6.36 7.006-9.544 11.036-13.693C44.59.97 45.438.307 46.253.307c1.282 0 1.665.883.919 2.118L43.14 9.076c-7.08 11.676-10.285 20.247-9.149 24.466.489 1.815 1.312 2.106 3.316 1.172 2.185-1.02 3.292-2.158 4.583-4.717 2.362-4.679 7.047-8.213 10.886-8.213 1.007 0 2.154.225 2.547.5.613.43.813.43 1.401 0 .893-.652 2.492-.64 3.043.024.354.425.065 1.248-1.54 4.384-1.085 2.124-2.346 4.535-2.801 5.358-.456.823-.718 1.606-.584 1.741.82.82 4.52-3.115 8.287-8.812 1.303-1.969 1.312-2.01.774-3.3-.7-1.674-.7-5-.002-6.35.586-1.135 2.182-2.136 3.404-2.136.419 0 1.232.47 1.807 1.046.855.854 1.047 1.35 1.047 2.699 0 .946-.306 2.252-.716 3.056-.942 1.847-.922 1.917.498 1.686 1.47-.238 2.724.52 2.724 1.648 0 .434-1.138 2.23-2.537 4.006-4.738 6.012-5.503 9.027-1.91 7.526 2.342-.978 3.528-2.146 9.102-8.962 4.059-4.964 5.611-6.62 6.205-6.62.915 0 2.384.93 2.384 1.509 0 .217-.67 1.283-1.49 2.368l-1.49 1.973.476 1.639c.261.901.545 2.323.63 3.16.086.837.235 1.521.332 1.521.096 0 1.102-.65 2.236-1.445 1.644-1.154 2.247-1.86 2.98-3.49 4.013-8.921 7.194-15.777 7.632-16.452.618-.953 2.666-1.116 3.37-.269.475.573.467.596-3.352 9.585l-1.64 3.857 1.543-.904c1.692-.992 3.008-1.147 3.872-.457.813.65 1.375 2.633 1.122 3.955-.228 1.195-1.917 4.71-3.517 7.32-.556.909-.759 1.522-.501 1.522.966 0 3.492-2.565 4.446-4.515 1.253-2.563 5.128-6.524 7.513-7.682 2.26-1.097 5.122-1.186 6.219-.193.649.587.773.603.958.121.451-1.175 3.74-.985 3.74.217 0 .272-1.127 2.67-2.506 5.33-1.378 2.66-2.505 5.185-2.505 5.611 0 1.368.981 1.255 2.878-.333 1.457-1.22 2.154-2.228 3.555-5.138 3.485-7.24 8.775-13.909 13.607-17.155 2.814-1.89 5.374-1.695 5.374.412 0 1.118-2.318 6.116-3.909 8.43-1.626 2.362-5.266 5.768-8.645 8.087-3.713 2.55-3.854 2.71-4.126 4.697-.266 1.938.651 3.064 2.181 2.68 1.596-.4 4.875-4.136 6.968-7.937 2.754-5.003 4.123-7.128 6.402-9.94 2.386-2.946 7.479-7.235 8.981-7.565 1.466-.322 2.487.06 2.728 1.02.252 1.006-1.166 4.953-2.749 7.652-1.488 2.539-6.414 7.48-10.082 10.116-2.882 2.07-3.489 3.127-2.974 5.177.664 2.646 3.719 1.541 7.067-2.557 1.946-2.38 2.25-2.62 2.726-2.143.774.774.373 1.843-1.75 4.654-2.009 2.662-4.747 4.71-6.787 5.076-2.247.404-4.638-1.163-5.451-3.573-.065-.19-.669.174-1.344.81-1.697 1.601-4.498 2.936-6.157 2.936-1.058 0-1.639-.25-2.436-1.046-.575-.575-1.046-1.38-1.046-1.79 0-.409-.087-.743-.194-.743-.107 0-1.033.633-2.058 1.407-3.149 2.377-4.793 2.56-6.298.702l-.603-.744-1.24.73c-.682.4-2.008.9-2.946 1.11-1.986.442-3.487-.027-4.865-1.523l-.844-.915-1.422 1.03c-2.17 1.572-3.599 1.941-4.9 1.268-1.348-.697-2.195-1.882-2.184-3.055.005-.498.971-2.747 2.148-4.998 1.177-2.252 2.14-4.225 2.14-4.386 0-.687-1.025-.168-2.838 1.436-1.682 1.49-2.212 2.315-3.96 6.17-2.308 5.09-3.172 5.96-4.926 4.97-1.027-.58-1.27-1.874-.628-3.341.194-.444-.594-.052-2.296 1.144-4.288 3.01-7.742 3.257-10.112.72l-.957-1.024-1.907 1.141c-1.364.817-2.49 1.188-3.952 1.303-1.9.149-2.12.084-3.132-.928-.79-.79-1.088-1.425-1.088-2.32 0-1.719 2.115-5.765 4.283-8.195 1.136-1.273 1.667-2.124 1.42-2.277-.482-.297-.309-.494-3.728 4.248-3.771 5.232-5.94 7.53-8.143 8.628-2.236 1.114-3.722 1.17-4.778.178l-.79-.743-1.456.743c-1.896.967-4.496.977-6.06.023-.646-.394-1.267-.954-1.378-1.244-.163-.426-.492-.328-1.704.505-2.548 1.754-5.643 2.166-7.82 1.043-1.664-.86-2.28-4.56-1.6-9.607l.266-1.97-1.12 1.97c-3.105 5.459-6.813 10.38-7.82 10.38-.133 0-.553-.227-.933-.505zm58.38-3.237c.713-.713.878-1.235.874-2.774-.006-2.195-.31-3.58-.755-3.431-.63.21-3.536 4.058-3.536 4.681 0 .704 1.52 2.403 2.148 2.403.215 0 .786-.396 1.269-.879zm31.558-1.8c2.975-2.546 5.096-8.78 3.085-9.066-2.644-.376-7.644 5.305-7.743 8.797-.071 2.517 1.9 2.63 4.658.269zm-61.767.573c2.424-1.537 4.422-4.732 4.832-7.73.244-1.775-.207-2.24-1.783-1.845-3.28.823-8.199 8.243-6.68 10.074.668.804 1.827.645 3.63-.498zm82.911-12.123c2.558-2.518 6.299-7.964 5.47-7.964-.166 0-1.574 1.344-3.129 2.987-2.713 2.866-6.171 7.751-5.487 7.751.18 0 1.596-1.248 3.146-2.774zm11.697-.626c1.763-1.622 5.31-7.338 4.553-7.338-1.035 0-8.295 9.19-8.295 10.5 0 .213.754-.33 1.676-1.209.922-.877 1.852-1.756 2.066-1.953zm-76.09-2.72c.347-.995.05-2.47-.496-2.47-.456 0-.911 1.616-.711 2.526.298 1.357.721 1.337 1.207-.056z" fill="#EDEDED"/></svg>