<svg width="26" height="26" fill="none" xmlns="http://www.w3.org/2000/svg"><path d="M12.717 6.545a6.523 6.523 0 00-6.523 6.524 6.523 6.523 0 006.523 6.524 6.523 6.523 0 006.524-6.524 6.523 6.523 0 00-6.524-6.524zm0 10.758a4.233 4.233 0 01-4.234-4.234 4.234 4.234 0 118.469 0 4.232 4.232 0 01-4.235 4.234z" fill="#303030"/><path d="M17.955.44C15.615.333 9.822.338 7.481.44c-2.058.097-3.872.594-5.335 2.057C-.3 4.942.013 8.237.013 13.07c0 4.945-.275 8.164 2.133 10.572 2.454 2.453 5.797 2.132 10.571 2.132 4.899 0 6.59.004 8.322-.667 2.355-.914 4.133-3.02 4.306-6.8.11-2.34.104-8.133 0-10.475-.21-4.463-2.605-7.17-7.39-7.39zm3.703 21.583c-1.603 1.603-3.827 1.46-8.971 1.46-5.297 0-7.422.078-8.971-1.476-1.786-1.776-1.462-4.63-1.462-8.955 0-5.853-.601-10.068 5.273-10.37 1.35-.047 1.747-.063 5.145-.063l.047.032c5.646 0 10.075-.591 10.341 5.282.06 1.34.074 1.743.074 5.135 0 5.236.099 7.372-1.476 8.955z" fill="#303030"/><path d="M19.5 7.813a1.525 1.525 0 100-3.05 1.525 1.525 0 000 3.05z" fill="#303030"/></svg>