<svg width="22" height="26" fill="none" xmlns="http://www.w3.org/2000/svg"><path d="M11.044.361C4.074.362.37 4.828.37 9.697c0 2.257 1.261 5.074 3.282 5.967.576.26.5-.057.995-1.953a.45.45 0 00-.108-.442c-2.887-3.34-.563-10.207 6.093-10.207 9.633 0 7.833 13.329 1.676 13.329-1.587 0-2.77-1.246-2.395-2.787.453-1.836 1.34-3.81 1.34-5.133 0-3.335-4.968-2.84-4.968 1.578 0 1.366.483 2.288.483 2.288L4.873 20c-.502 2.043.068 5.35.118 5.634.03.157.206.207.305.078.158-.207 2.09-2.963 2.631-4.956.197-.726 1.006-3.671 1.006-3.671.533.962 2.069 1.767 3.706 1.767 4.869 0 8.388-4.28 8.388-9.59C21.01 4.17 16.653.36 11.044.36z" fill="#303030"/></svg>