<svg width="27" height="26" fill="none" xmlns="http://www.w3.org/2000/svg"><path d="M13.398 25.787c7.017 0 12.712-5.696 12.712-12.713C26.11 6.056 20.415.36 13.398.36 6.38.361.685 6.056.685 13.074c0 7.017 5.695 12.713 12.713 12.713zm5.161-6.721v.001c-.855 0-3.555-2.996-11.145-1.44-.2.051-.462.133-.61.133-.97 0-1.155-1.45-.112-1.672 4.198-.927 8.489-.846 12.148 1.343.873.557.502 1.635-.28 1.635zm1.38-3.362c-.12-.031-.084.073-.632-.215-3.205-1.896-7.98-2.66-12.23-1.507-.247.067-.38.133-.611.133-1.135 0-1.436-1.706-.2-2.055 4.997-1.404 10.357-.585 14.088 1.635.415.245.58.564.58 1.01a.994.994 0 01-.995 1zM5.503 7.774c4.792-1.402 12.043-.959 16.552 1.673 1.156.666.701 2.351-.527 2.351h-.002c-.267 0-.43-.067-.662-.2-3.647-2.179-10.174-2.701-14.397-1.522-.185.05-.416.132-.662.132-.677 0-1.194-.528-1.194-1.21 0-.696.431-1.09.892-1.223z" fill="#303030"/></svg>