<svg width="163" height="162" fill="none" xmlns="http://www.w3.org/2000/svg"><path d="M156.701 84.945l.207-2.677 1.986.153-.608 7.867-1.986-.153.206-2.668-14.644-1.132.195-2.522 14.644 1.132zm.249 12.631l-.697 2.825-16.933-.998.613-2.484 3.011.27.73-2.958-2.796-1.143.615-2.493 15.457 6.98zm-12.087-.216l8.349.853.026-.104-7.785-3.138-.59 2.39zm8.68 11.573l-1.029 2.31c-.13.292-.286.603-.47.935-.18.34-.397.661-.652.961a4.055 4.055 0 01-.894.809 3.285 3.285 0 01-1.215.496c-.457.096-.979.102-1.569.018-.592-.078-1.263-.284-2.013-.618l-.535-.238c-.815-.363-1.482-.745-2.001-1.147-.516-.394-.922-.795-1.217-1.205a3.58 3.58 0 01-.584-1.233 3.932 3.932 0 01-.12-1.197c.027-.38.095-.748.204-1.106.113-.349.235-.672.368-.969l.099-.224-4.639-2.065 1.028-2.31 15.239 6.783zm-9.985-1.537c-.185.416-.282.794-.29 1.132-.002.341.088.652.269.932.185.289.464.56.837.811.376.26.849.517 1.42.771l1.374.612c.452.201.856.342 1.213.422.362.083.688.086.979.008a1.58 1.58 0 00.775-.467c.234-.238.448-.574.641-1.008l.052-.116-7.218-3.213-.052.116zm-2.33 19.203l1.673-2.1 1.558 1.241-4.916 6.172-1.558-1.241 1.667-2.093-11.488-9.152 1.576-1.978 11.488 9.151zm-19.646-.569c.2-.176.432-.351.697-.524.26-.178.55-.316.869-.417.32-.1.669-.152 1.048-.156.378.005.785.088 1.223.248.432.166.896.43 1.39.792.498.368 1.024.864 1.575 1.488l3.912 4.428c.556.629.982 1.209 1.276 1.739.294.54.492 1.034.593 1.483.106.454.134.864.083 1.23-.055.37-.156.703-.303.998a3.564 3.564 0 01-.528.804 6.515 6.515 0 01-.598.607c-.185.164-.403.33-.653.499-.251.178-.53.32-.836.426a3.105 3.105 0 01-1.021.186c-.37.014-.774-.06-1.211-.221-.434-.155-.899-.417-1.398-.785-.499-.358-1.031-.857-1.595-1.496l-3.912-4.428c-.548-.619-.968-1.199-1.263-1.738-.289-.535-.489-1.031-.599-1.49a3.498 3.498 0 01-.082-1.257c.051-.376.144-.718.278-1.028.134-.301.298-.567.493-.8.194-.232.381-.428.562-.588zm1.261 1.427a1.507 1.507 0 00-.399.522.993.993 0 00-.053.634c.045.238.158.503.338.795.18.302.442.648.787 1.038l5.024 5.687c.353.4.673.713.959.938.281.229.539.384.774.463.234.088.452.104.654.047.197-.052.388-.16.573-.324.191-.168.326-.349.408-.542.081-.194.094-.414.041-.662-.05-.243-.169-.52-.357-.831a8.457 8.457 0 00-.82-1.061l-5.024-5.687a8.049 8.049 0 00-.926-.915c-.273-.21-.525-.353-.755-.427a1.046 1.046 0 00-.643-.019 1.602 1.602 0 00-.581.344zm-4.53 21.685l-2.223.961-5.026-8.808-1.05-2.11-.224.097.834 2.522 2.229 9.696-1.855.801-5.457-8.302-1.229-2.352-.233.101.826 2.207 3.053 9.659-2.232.964-4.469-16.239 2.357-1.018 4.443 6.815 1.776 3.03.18-.077-.997-3.367-1.851-7.934 2.331-1.006 8.817 14.36zm-21.195 7.478l-2.861.534-6.096-15.83 2.515-.469 1 2.853 2.995-.56-.117-3.018 2.525-.471.039 16.961zm-4.804-11.094l2.678 7.954.105-.02-.364-8.386-2.42.452zm-8.252 10.693l2.685-.052.038 1.992-7.889.152-.038-1.992 2.675-.051-.283-14.685 2.528-.049.284 14.685zM71.883 140.73c.258.039.534.104.83.195a3.259 3.259 0 011.632 1.096c.232.292.424.657.575 1.094.144.437.236.961.275 1.573.032.617-.014 1.338-.14 2.162l-.883 5.841c-.126.831-.297 1.529-.515 2.095-.218.573-.464 1.043-.736 1.41-.274.373-.568.658-.88.854a3.192 3.192 0 01-.942.411 3.335 3.335 0 01-.916.118 6.416 6.416 0 01-.83-.066c-.656-.099-1.19-.276-1.599-.528-.417-.248-.733-.553-.948-.914a2.761 2.761 0 01-.402-1.197 5.177 5.177 0 01.031-1.378c.054-.354.123-.679.207-.976.077-.291.178-.612.304-.962l2.027.307-.127.84c-.137.908-.14 1.602-.009 2.083.132.481.39.75.777.809.231.035.441.02.628-.043.188-.064.356-.197.505-.398.148-.195.281-.465.399-.809.111-.345.207-.782.287-1.31l1.14-7.531c.078-.515.12-.946.127-1.294 0-.349-.04-.635-.118-.858a1.028 1.028 0 00-.357-.508 1.543 1.543 0 00-.628-.224 1.085 1.085 0 00-.48.036 1.11 1.11 0 00-.439.29c-.14.143-.26.329-.36.557a3.138 3.138 0 00-.237.844l-.244 1.612-2.288-.346.23-1.526c.201-1.326.652-2.258 1.352-2.798.701-.539 1.618-.726 2.752-.561zm-12.471 14.544l-2.391-.826 2.28-6.6-2.834-.979-2.28 6.6-2.39-.826 5.447-15.765 2.39.826-2.516 7.282 2.834.979 2.516-7.282 2.39.826-5.446 15.765zm-19.729-11.34l2.217 1.516-1.124 1.645-6.515-4.453 1.125-1.645 2.209 1.51 8.289-12.125 2.088 1.427-8.29 12.125zm-9.986-4.999l-1.808-1.769 4.884-4.991-2.143-2.096-4.883 4.991-1.808-1.769 11.665-11.923 1.807 1.769-5.388 5.508 2.143 2.096 5.389-5.507 1.807 1.769-11.665 11.922zm-9.972-10.672l-3.6-5.025 1.62-1.16 2.127 2.969 4.057-2.906-1.644-2.295 1.62-1.16 1.643 2.295 4.645-3.327-2.184-3.049 1.62-1.16 3.656 5.105-13.56 9.713zm-9.457-15.779l-.994-2.326 15.338-6.555.994 2.326-15.338 6.555zm-3.394-8.579l-.498-1.989 9.843-6.636-.014-.057a32.73 32.73 0 00-.824.287c-.302.11-.645.225-1.03.349-.392.125-.834.26-1.329.403a46.37 46.37 0 01-1.678.452l-5.902 1.48-.55-2.198 16.178-4.057.504 2.008-9.565 6.546.02.076c.279-.09.582-.193.909-.308.32-.114.701-.24 1.143-.378a66.676 66.676 0 013.67-1.02l4.756-1.193.546 2.179-16.179 4.056zm-1.2-17.092l.166 2.68-1.988.124-.487-7.876 1.988-.123.165 2.67 14.66-.905.156 2.524-14.66.906zM3.492 75.61l.316-2.726c.036-.31.089-.649.158-1.014.069-.372.177-.737.323-1.093a4.22 4.22 0 01.571-1.025c.241-.326.552-.602.932-.826.38-.231.846-.397 1.395-.497.542-.1 1.189-.107 1.939-.02l.417.048c1.261.147 2.268.447 3.022.902.747.454 1.254 1.053 1.521 1.799l6.934-1.889-.309 2.658-6.454 1.482-.11.941 6.2.72-.287 2.464-16.568-1.925zm8.886-1.849c.05-.44.046-.817-.016-1.132a1.551 1.551 0 00-.4-.794c-.21-.215-.499-.386-.864-.513-.372-.129-.836-.225-1.392-.29l-1.31-.152c-.426-.05-.8-.053-1.119-.012-.32.042-.59.145-.813.309a1.63 1.63 0 00-.53.675c-.133.293-.225.67-.279 1.128l-.044.379 6.723.78.044-.378zm10.65-11.358a6.065 6.065 0 01-.33.806 3.242 3.242 0 01-.535.803 3.63 3.63 0 01-.82.671c-.327.19-.72.327-1.178.412-.456.08-.989.09-1.599.031-.616-.06-1.321-.218-2.115-.472l-5.626-1.803c-.8-.256-1.462-.536-1.987-.841-.529-.313-.951-.637-1.268-.97-.323-.337-.557-.675-.7-1.015a3.316 3.316 0 01-.25-1.013 3.592 3.592 0 01.04-.96c.057-.304.125-.58.204-.828a6.38 6.38 0 01.306-.763c.125-.282.291-.546.5-.793.206-.256.466-.484.783-.683.31-.201.695-.345 1.153-.43.452-.088.986-.101 1.603-.04.612.052 1.324.208 2.136.468l5.627 1.803c.787.252 1.445.535 1.974.848.522.31.948.635 1.277.973.324.336.561.682.714 1.039.148.348.243.69.287 1.025.038.327.034.64-.014.939a5.44 5.44 0 01-.182.793zm-1.814-.581c.076-.236.1-.454.076-.653a.994.994 0 00-.278-.571c-.161-.181-.394-.352-.698-.51a7.194 7.194 0 00-1.207-.49l-7.226-2.315a7.666 7.666 0 00-1.304-.315c-.36-.054-.66-.054-.902-.002a1.033 1.033 0 00-.587.294 1.425 1.425 0 00-.327.572 1.512 1.512 0 00-.072.674c.03.208.13.404.303.59.167.183.411.36.732.532.324.165.74.328 1.248.491l7.226 2.316c.496.158.917.263 1.264.312.342.041.631.035.867-.02.236-.054.424-.158.562-.312a1.61 1.61 0 00.323-.593zm-10.15-15.091l1.27-2.3c.191-.348.4-.7.628-1.059.224-.367.486-.698.783-.995a3.9 3.9 0 011.036-.745c.387-.203.84-.317 1.36-.343.514-.028 1.102.05 1.765.238.66.178 1.412.5 2.255.965l4.241 2.34c.844.465 1.52.931 2.029 1.398.512.46.892.916 1.142 1.366.25.45.395.894.436 1.333.038.43.009.853-.087 1.269-.092.41-.23.809-.415 1.198-.188.38-.377.744-.569 1.091l-1.269 2.3-14.605-8.056zm14.59 4.424c.22-.4.35-.755.39-1.069a1.375 1.375 0 00-.2-.912c-.177-.299-.473-.6-.886-.902-.419-.305-.97-.646-1.654-1.024l-4.532-2.5a15.695 15.695 0 00-1.74-.848c-.482-.192-.894-.281-1.235-.269-.344.004-.64.108-.887.314-.244.2-.476.5-.697.898l-.31.565 11.44 6.311.312-.564zM18.907 33.87l1.638-1.953 9.366 7.86c.4.334.747.592 1.045.774.298.182.562.298.793.347.23.04.436.022.62-.054a1.52 1.52 0 00.51-.413c.16-.189.266-.38.318-.575a1.062 1.062 0 00-.042-.634c-.08-.229-.233-.476-.46-.743a7.185 7.185 0 00-.932-.91l-9.366-7.859 1.62-1.93 8.85 7.426c.623.523 1.114 1.02 1.475 1.493.36.472.62.916.782 1.332.16.416.239.804.233 1.165a3.31 3.31 0 01-.148.997 3.4 3.4 0 01-.393.818 7.3 7.3 0 01-.477.645 7.31 7.31 0 01-.553.582 3.36 3.36 0 01-.73.521 3.39 3.39 0 01-.95.312c-.35.063-.745.051-1.182-.035-.437-.087-.917-.264-1.44-.533-.523-.278-1.1-.68-1.728-1.208l-8.85-7.426zm23.383-.15a5.943 5.943 0 01-.699.488c-.256.16-.545.286-.868.375a3.531 3.531 0 01-1.037.11 3.663 3.663 0 01-1.2-.3c-.421-.184-.873-.465-1.355-.844-.481-.388-.987-.903-1.518-1.545l-3.765-4.553c-.535-.648-.941-1.24-1.218-1.78-.282-.545-.468-1.041-.56-1.49-.096-.452-.112-.86-.05-1.225.062-.364.17-.689.321-.975a3.33 3.33 0 01.523-.762c.206-.221.407-.413.603-.574.512-.423.998-.703 1.46-.84.462-.146.9-.178 1.313-.097.414.071.8.237 1.16.498.364.257.7.57 1.006.942.228.276.425.544.59.805.166.251.337.54.514.867l-1.58 1.307-.542-.655c-.585-.707-1.1-1.173-1.546-1.395-.446-.223-.82-.21-1.12.04-.181.149-.31.314-.388.497-.077.182-.09.396-.04.641.047.24.16.52.337.837.183.313.445.675.785 1.087l4.854 5.87c.332.402.625.72.88.958.26.232.5.394.717.484.218.09.424.114.618.072.194-.05.39-.157.585-.319a1.08 1.08 0 00.293-.381c.065-.156.09-.33.077-.52a1.858 1.858 0 00-.175-.641 3.136 3.136 0 00-.471-.738l-1.04-1.257 1.784-1.475.983 1.189c.855 1.034 1.25 1.991 1.184 2.873-.065.882-.537 1.69-1.416 2.425zm-2.966-18.65l2.159-1.318 8.694 14.235-2.159 1.318-8.694-14.234zm7.718-4.476l1.895-.785 8.006 8.766.054-.023c-.117-.233-.252-.49-.404-.773a29.415 29.415 0 01-.497-.968 46.26 46.26 0 01-1.286-2.85l-2.328-5.62 2.094-.867 6.382 15.41-1.913.792-7.876-8.502-.072.03c.13.263.276.548.438.854.16.3.34.66.541 1.076a66.44 66.44 0 011.548 3.482l1.876 4.529-2.075.86-6.383-15.411zm21.815 10.368a4.04 4.04 0 01-.684.06 2.8 2.8 0 01-.846-.106 3.515 3.515 0 01-.904-.415 3.763 3.763 0 01-.896-.843c-.283-.37-.544-.837-.785-1.4-.24-.571-.44-1.266-.596-2.084L63.04 10.37c-.157-.825-.224-1.541-.2-2.149.021-.614.106-1.14.255-1.58.147-.445.341-.813.584-1.105.25-.293.519-.53.809-.711.289-.188.583-.33.883-.427.3-.097.58-.17.843-.22.665-.127 1.242-.141 1.731-.042a2.843 2.843 0 012.08 1.522c.209.397.358.833.448 1.306.067.352.107.682.12.991.017.302.025.638.023 1.01l-1.986.379-.148-.777c-.342-1.797-.997-2.604-1.962-2.42-.263.05-.481.138-.656.265-.175.126-.305.31-.392.552-.087.235-.13.535-.126.899.01.362.064.806.164 1.33l1.416 7.425c.098.512.208.931.33 1.26.128.326.273.58.434.762.167.18.351.297.554.351.208.047.442.045.705-.005.275-.052.498-.168.67-.346a1.71 1.71 0 00.375-.688c.08-.274.117-.586.11-.936 0-.351-.039-.725-.115-1.121l-.408-2.14-1.275.244-.312-1.631 3.694-.704 1.582 8.297-1.65.315-.565-1.503c-.197.668-.475 1.174-.833 1.521-.353.34-.807.562-1.364.668z" fill="#EDEDED"/></svg>