<svg width="152" height="39" viewBox="0 0 152 39" fill="none" xmlns="http://www.w3.org/2000/svg">
<path d="M20.5654 38.4602C19.8898 37.9662 19.9045 37.8374 21.2358 32.5823C21.9845 29.6273 22.6749 26.2706 22.7701 25.123L22.9432 23.0364L21.1597 26.4966C17.983 32.6599 15.6437 35.6527 12.616 37.427C10.7187 38.5389 7.20354 38.9132 4.84925 38.2541C0.0491906 36.9101 -1.66442 30.4869 1.90046 27.2009C4.04733 25.222 10.1879 26.0147 9.50008 28.182C9.27343 28.8961 9.08779 28.9536 7.68764 28.7437C6.32315 28.539 6.01295 28.6245 5.21164 29.4258C4.50292 30.1345 4.29557 30.703 4.29557 31.9371C4.29557 33.279 4.47047 33.6795 5.39689 34.4591C7.29643 36.0574 10.2149 35.533 12.5661 33.1709C14.1904 31.539 16.986 26.4011 20.5654 18.4693C24.2843 10.2282 26.5229 5.77931 28.4674 2.76522C30.2299 0.0331317 30.5096 -0.198035 31.6938 0.0991845C33.0348 0.435754 33.1048 1.64322 31.9347 4.25651C29.7281 9.18466 28.1418 14.977 27.7228 19.6358L27.4814 22.3205L30.9802 17.3092C35.4203 10.9494 37.9866 7.76579 42.0171 3.61747C44.5894 0.9699 45.4383 0.306408 46.2532 0.306408C47.535 0.306408 47.9184 1.1905 47.1718 2.42492C46.8644 2.93317 45.0501 5.92626 43.14 9.07625C36.0602 20.7518 32.855 29.323 33.9911 33.542C34.4799 35.3573 35.3034 35.6483 37.307 34.7137C39.4924 33.6942 40.5988 32.5556 41.8904 29.997C44.2522 25.3183 48.9368 21.7836 52.7757 21.7836C53.7832 21.7836 54.9296 22.0091 55.3231 22.2847C55.9364 22.7143 56.1365 22.7143 56.724 22.2847C57.6172 21.6316 59.2164 21.6435 59.7674 22.3075C60.1207 22.7331 59.8317 23.5562 58.2278 26.6924C57.1418 28.816 55.8808 31.2268 55.4255 32.0499C54.9703 32.8729 54.708 33.6564 54.8425 33.791C55.6619 34.6103 59.3623 30.6756 63.1293 24.9794C64.4316 23.0102 64.4414 22.9683 63.903 21.6798C63.2033 20.0052 63.2021 16.6796 63.9007 15.3287C64.4875 14.194 66.0834 13.1927 67.305 13.1927C67.7236 13.1927 68.537 13.6635 69.1125 14.239C69.9668 15.0933 70.1588 15.5887 70.1588 16.9379C70.1588 17.8841 69.8528 19.1903 69.4429 19.9938C68.5005 21.8412 68.521 21.9107 69.9413 21.6802C71.4113 21.4416 72.6645 22.1998 72.6645 23.3276C72.6645 23.7622 71.5274 25.5581 70.1277 27.3343C65.3901 33.346 64.6251 36.3614 68.2185 34.86C70.5604 33.8815 71.7459 32.7141 77.3196 25.8979C81.3788 20.9338 82.9311 19.2779 83.5253 19.2779C84.4405 19.2779 85.9088 20.2075 85.9088 20.787C85.9088 21.004 85.2384 22.0695 84.4191 23.1546L82.9294 25.1277L83.4046 26.7667C83.666 27.6681 83.9499 29.0903 84.0355 29.927C84.121 30.7637 84.2701 31.4483 84.3666 31.4483C84.4631 31.4483 85.4695 30.7978 86.6029 30.0027C88.2473 28.8493 88.8497 28.1439 89.5835 26.5127C93.5964 17.592 96.7767 10.7358 97.215 10.0606C97.8335 9.10766 99.8814 8.94466 100.585 9.79239C101.06 10.3648 101.052 10.3881 97.2327 19.3765L95.5937 23.2337L97.1363 22.3296C98.8282 21.3381 100.144 21.1829 101.008 21.8731C101.821 22.5232 102.383 24.5055 102.13 25.8282C101.902 27.0233 100.213 30.5377 98.613 33.1486C98.0565 34.0566 97.8543 34.6699 98.1115 34.6699C99.0776 34.6699 101.604 32.1047 102.558 30.1548C103.811 27.5924 107.686 23.6306 110.071 22.4733C112.331 21.3761 115.193 21.287 116.29 22.2797C116.939 22.867 117.063 22.8829 117.248 22.4015C117.699 21.2261 120.988 21.4164 120.988 22.6179C120.988 22.8897 119.861 25.2881 118.482 27.9478C117.104 30.6076 115.977 33.1326 115.977 33.559C115.977 34.9274 116.958 34.8138 118.855 33.2258C120.312 32.0062 121.009 30.9979 122.41 28.0883C125.895 20.8485 131.185 14.1795 136.017 10.9326C138.831 9.04207 141.391 9.23849 141.391 11.345C141.391 12.4631 139.073 17.4612 137.482 19.7741C135.856 22.1374 132.216 25.5431 128.837 27.8623C125.124 30.4111 124.983 30.5718 124.711 32.5592C124.445 34.4971 125.362 35.6234 126.892 35.2394C128.488 34.8387 131.767 31.1034 133.86 27.3017C136.614 22.299 137.983 20.1739 140.262 17.3614C142.648 14.4159 147.741 10.1273 149.243 9.79718C150.709 9.47519 151.73 9.85669 151.971 10.817C152.223 11.8229 150.805 15.7702 149.222 18.4693C147.734 21.0076 142.808 25.9488 139.14 28.5847C136.258 30.6551 135.651 31.7118 136.166 33.7623C136.83 36.4084 139.885 35.3032 143.233 31.2053C145.179 28.8249 145.483 28.5855 145.959 29.0617C146.733 29.8358 146.332 30.9046 144.209 33.7159C142.2 36.3777 139.462 38.4259 137.422 38.7924C135.175 39.1963 132.784 37.6287 131.971 35.2187C131.906 35.0283 131.302 35.3933 130.627 36.0297C128.93 37.6301 126.129 38.9653 124.47 38.9653C123.412 38.9653 122.831 38.7159 122.034 37.919C121.459 37.3435 120.988 36.5381 120.988 36.1292C120.988 35.7203 120.901 35.3858 120.794 35.3858C120.687 35.3858 119.761 36.0189 118.736 36.7927C115.587 39.1696 113.943 39.353 112.438 37.4952L111.835 36.7508L110.595 37.4803C109.913 37.8816 108.587 38.381 107.649 38.5902C105.663 39.0333 104.162 38.5638 102.784 37.0682L101.94 36.1528L100.518 37.1826C98.3479 38.7548 96.9195 39.1244 95.6171 38.4509C94.2701 37.7544 93.4232 36.5691 93.4342 35.3956C93.4388 34.898 94.4053 32.6488 95.5819 30.3975C96.7585 28.1461 97.7212 26.1729 97.7212 26.0125C97.7212 25.3253 96.6965 25.8439 94.8843 27.4481C93.2024 28.9371 92.672 29.7634 90.9242 33.6178C88.6165 38.7071 87.7525 39.5789 85.9982 38.5885C84.9713 38.0088 84.7277 36.7136 85.3696 35.2467C85.5639 34.8026 84.7762 35.1952 83.0737 36.3908C78.786 39.4019 75.3321 39.648 72.9622 37.1111L72.0054 36.0868L70.0977 37.2285C68.7339 38.0448 67.6075 38.416 66.1463 38.5308C64.2467 38.68 64.0258 38.6145 63.0142 37.603C62.2233 36.8121 61.9259 36.178 61.9259 35.2824C61.9259 33.5642 64.041 29.518 66.2093 27.0884C67.3455 25.8152 67.8759 24.9638 67.6283 24.8108C67.1474 24.5136 67.3202 24.3166 63.9013 29.0592C60.1297 34.2911 57.9608 36.589 55.7582 37.6865C53.5216 38.8011 52.0357 38.8565 50.98 37.8648L50.1895 37.1222L48.734 37.8648C46.8384 38.8318 44.2383 38.8418 42.674 37.888C42.0275 37.4939 41.4075 36.934 41.2961 36.6438C41.1327 36.2181 40.8037 36.3156 39.5924 37.149C37.0436 38.9027 33.9488 39.3153 31.7721 38.1917C30.1078 37.3325 29.4916 33.6327 30.1722 28.5847L30.4376 26.6159L29.3177 28.5847C26.2126 34.0435 22.5047 38.9653 21.4974 38.9653C21.3647 38.9653 20.9453 38.738 20.5654 38.4602ZM78.9449 35.2231C79.6584 34.5096 79.8226 33.9881 79.8187 32.4489C79.813 30.254 79.5082 28.8685 79.0639 29.0175C78.4332 29.2289 75.5281 33.0756 75.5281 33.6992C75.5281 34.4025 77.0471 36.1017 77.6758 36.1017C77.8906 36.1017 78.4617 35.7063 78.9449 35.2231ZM110.503 33.423C113.478 30.8768 115.599 24.6438 113.588 24.3574C110.944 23.9809 105.944 29.662 105.845 33.1543C105.774 35.6708 107.745 35.7845 110.503 33.423ZM48.7359 33.9965C51.1599 32.4592 53.1576 29.2637 53.5684 26.2662C53.8117 24.4911 53.3614 24.0253 51.7846 24.4211C48.5057 25.244 43.586 32.664 45.1054 34.4948C45.7732 35.2994 46.9323 35.1403 48.7359 33.9965ZM131.647 21.8731C134.205 19.3553 137.946 13.9086 137.117 13.9086C136.951 13.9086 135.543 15.2532 133.988 16.8965C131.275 19.7623 127.817 24.6472 128.501 24.6472C128.681 24.6472 130.097 23.3988 131.647 21.8731ZM143.344 21.2466C145.107 19.6245 148.654 13.9086 147.897 13.9086C146.862 13.9086 139.602 23.0986 139.602 24.4097C139.602 24.6223 140.356 24.0781 141.278 23.2004C142.2 22.3227 143.13 21.4435 143.344 21.2466ZM67.2539 18.5267C67.6007 17.5319 67.3046 16.0563 66.7583 16.0563C66.302 16.0563 65.847 17.6726 66.047 18.583C66.345 19.9397 66.7682 19.9199 67.2539 18.5267Z" fill="#EDEDED"/>
</svg>
