<svg width="530" height="37" viewBox="0 0 530 37" fill="none" xmlns="http://www.w3.org/2000/svg">
<path d="M0 36H484.5L509 21" stroke="white"/>
<circle cx="517.5" cy="12.5" r="2.5" fill="white"/>
<path d="M530 12.5C530 19.4036 524.404 25 517.5 25C510.596 25 505 19.4036 505 12.5C505 5.59644 510.596 0 517.5 0C524.404 0 530 5.59644 530 12.5ZM506.197 12.5C506.197 18.7424 511.258 23.8028 517.5 23.8028C523.742 23.8028 528.803 18.7424 528.803 12.5C528.803 6.25761 523.742 1.19716 517.5 1.19716C511.258 1.19716 506.197 6.25761 506.197 12.5Z" fill="white"/>
</svg>
