<svg width="441" height="37" viewBox="0 0 441 37" fill="none" xmlns="http://www.w3.org/2000/svg">
<path d="M440.5 36H45.5L21 21" stroke="white" stroke-width="0.869811"/>
<path d="M9.15527e-05 12.5C9.15527e-05 19.4036 5.59653 25 12.5001 25C19.4037 25 25.0001 19.4036 25.0001 12.5C25.0001 5.59644 19.4037 0 12.5001 0C5.59653 0 9.15527e-05 5.59644 9.15527e-05 12.5ZM23.8029 12.5C23.8029 18.7424 18.7425 23.8028 12.5001 23.8028C6.25771 23.8028 1.19725 18.7424 1.19725 12.5C1.19725 6.25761 6.25771 1.19716 12.5001 1.19716C18.7425 1.19716 23.8029 6.25761 23.8029 12.5Z" fill="white"/>
<circle cx="12.5" cy="12.5" r="5.5" fill="white"/>
</svg>
