<svg width="426" height="37" viewBox="0 0 426 37" fill="none" xmlns="http://www.w3.org/2000/svg">
<path d="M425.5 1H45.5L21 16" stroke="white" stroke-width="0.869811"/>
<circle cx="12.5" cy="24.5" r="5.5" fill="white"/>
<path d="M0 24.5C0 17.5964 5.59644 12 12.5 12C19.4036 12 25 17.5964 25 24.5C25 31.4036 19.4036 37 12.5 37C5.59644 37 0 31.4036 0 24.5ZM23.8028 24.5C23.8028 18.2576 18.7424 13.1972 12.5 13.1972C6.25761 13.1972 1.19716 18.2576 1.19716 24.5C1.19716 30.7424 6.25761 35.8028 12.5 35.8028C18.7424 35.8028 23.8028 30.7424 23.8028 24.5Z" fill="white"/>
</svg>
