<svg width="26" height="26" viewBox="0 0 26 26" fill="none" xmlns="http://www.w3.org/2000/svg">
<path d="M12.7174 6.54517C9.11226 6.54517 6.1936 9.467 6.1936 13.069C6.1936 16.6741 9.11544 19.5928 12.7174 19.5928C16.3226 19.5928 19.2412 16.6709 19.2412 13.069C19.2412 9.46382 16.3194 6.54517 12.7174 6.54517ZM12.7174 17.3034C10.3772 17.3034 8.48297 15.4081 8.48297 13.069C8.48297 10.7298 10.3782 8.83454 12.7174 8.83454C15.0566 8.83454 16.9518 10.7298 16.9518 13.069C16.9529 15.4081 15.0576 17.3034 12.7174 17.3034Z" fill="#303030"/>
<path d="M17.955 0.440949C15.6158 0.33183 9.82197 0.337127 7.48069 0.440949C5.42333 0.537355 3.60857 1.03421 2.14553 2.49725C-0.29957 4.94235 0.0129536 8.2371 0.0129536 13.069C0.0129536 18.0143 -0.262491 21.2328 2.14553 23.6408C4.60017 26.0944 7.94259 25.7734 12.7173 25.7734C17.616 25.7734 19.3068 25.7766 21.0389 25.106C23.394 24.1917 25.1717 22.0867 25.3454 18.3057C25.4556 15.9654 25.4492 10.1726 25.3454 7.83135C25.1356 3.36808 22.7403 0.661305 17.955 0.440949ZM21.6576 22.0231C20.0547 23.626 17.8311 23.483 12.6866 23.483C7.38958 23.483 5.26548 23.5614 3.71557 22.0072C1.93047 20.2306 2.25359 17.3776 2.25359 13.0521C2.25359 7.19888 1.65291 2.98352 7.5273 2.68265C8.87698 2.63497 9.27426 2.61908 12.6718 2.61908L12.7194 2.65086C18.365 2.65086 22.7944 2.05972 23.0603 7.93305C23.1207 9.27319 23.1344 9.67577 23.1344 13.068C23.1334 18.3035 23.233 20.4404 21.6576 22.0231Z" fill="#303030"/>
<path d="M19.4996 7.81263C20.3415 7.81263 21.0241 7.1301 21.0241 6.28815C21.0241 5.4462 20.3415 4.76367 19.4996 4.76367C18.6576 4.76367 17.9751 5.4462 17.9751 6.28815C17.9751 7.1301 18.6576 7.81263 19.4996 7.81263Z" fill="#303030"/>
</svg>
