<svg width="22" height="26" viewBox="0 0 22 26" fill="none" xmlns="http://www.w3.org/2000/svg">
<path d="M11.0442 0.361084C4.07436 0.362143 0.369629 4.82753 0.369629 9.69654C0.369629 11.9541 1.63138 14.7711 3.65166 15.6642C4.22798 15.9237 4.1517 15.607 4.6475 13.7106C4.6867 13.5528 4.66657 13.4161 4.53944 13.2689C1.65151 9.92855 3.97584 3.0615 10.6321 3.0615C20.2652 3.0615 18.4653 16.3909 12.308 16.3909C10.7211 16.3909 9.53876 15.1451 9.91273 13.6036C10.3662 11.7677 11.2539 9.79401 11.2539 8.47082C11.2539 5.13581 6.28534 5.63056 6.28534 10.0493C6.28534 11.4149 6.76842 12.3366 6.76842 12.3366C6.76842 12.3366 5.16979 18.7947 4.87315 20.0014C4.371 22.0439 4.94095 25.3503 4.99075 25.6353C5.02147 25.7921 5.19733 25.8419 5.29585 25.7126C5.45371 25.506 7.38606 22.7495 7.92741 20.7567C8.12446 20.031 8.93279 17.0859 8.93279 17.0859C9.46567 18.0478 11.0018 18.853 12.6386 18.853C17.5076 18.853 21.0269 14.573 21.0269 9.26219C21.01 4.1707 16.6527 0.361084 11.0442 0.361084V0.361084Z" fill="#303030"/>
</svg>
