<svg width="27" height="26" viewBox="0 0 27 26" fill="none" xmlns="http://www.w3.org/2000/svg">
<path d="M13.3977 25.7868C20.4151 25.7868 26.1105 20.0914 26.1105 13.0739C26.1105 6.05643 20.4151 0.361084 13.3977 0.361084C6.38017 0.361084 0.684814 6.05643 0.684814 13.0739C0.684814 20.0914 6.38017 25.7868 13.3977 25.7868ZM18.5591 19.0659V19.067C17.7041 19.067 15.0037 16.071 7.41414 17.6262C7.21392 17.6781 6.95224 17.7597 6.80393 17.7597C5.83457 17.7597 5.64918 16.3093 6.69163 16.0879C10.89 15.1609 15.1806 15.2425 18.8398 17.4312C19.7128 17.9885 19.342 19.0659 18.5591 19.0659ZM19.9395 15.7044C19.8198 15.6726 19.8547 15.7775 19.307 15.4894C16.1023 13.593 11.3265 12.8281 7.07619 13.9818C6.83041 14.0486 6.69693 14.1153 6.46598 14.1153C5.33136 14.1153 5.03049 12.4086 6.26681 12.0601C11.263 10.6564 16.6225 11.4753 20.3537 13.6947C20.769 13.9405 20.9332 14.2594 20.9332 14.7043C20.9279 15.2574 20.4978 15.7044 19.9395 15.7044ZM5.50298 7.77479C10.2947 6.37214 17.5463 6.81497 22.0551 9.44653C23.2109 10.1129 22.7564 11.7984 21.5275 11.7984L21.5265 11.7973C21.2595 11.7973 21.0953 11.7306 20.8643 11.5971C17.2168 9.41898 10.6898 8.8967 6.46704 10.0758C6.28164 10.1267 6.05069 10.2082 5.80491 10.2082C5.12795 10.2082 4.61096 9.67959 4.61096 8.9984C4.61096 8.30237 5.04214 7.90827 5.50298 7.77479Z" fill="#303030"/>
</svg>
